<?xml version="1.0" encoding="UTF-8"?>
<!DOCTYPE svg PUBLIC "-//W3C//DTD SVG 1.1//EN" "http://www.w3.org/Graphics/SVG/1.1/DTD/svg11.dtd">
<!-- Creator: CorelDRAW 2018 (64 Bit Versão de avaliação) -->
<svg xmlns="http://www.w3.org/2000/svg" xml:space="preserve" width="256px" height="72px" version="1.1" style="shape-rendering:geometricPrecision; text-rendering:geometricPrecision; image-rendering:optimizeQuality; fill-rule:evenodd; clip-rule:evenodd"
viewBox="0 0 256 72"
 xmlns:xlink="http://www.w3.org/1999/xlink">
 <defs>
  <style type="text/css">
   <![CDATA[
    .fil0 {fill:#FEFEFE}
    .fil2 {fill:#1D1D1B;fill-rule:nonzero}
    .fil1 {fill:#1D1D1B;fill-rule:nonzero}
    .fil3 {fill:#E30613;fill-rule:nonzero}
    .fil4 {fill:white;fill-rule:nonzero}
   ]]>
  </style>
 </defs>
 <g id="Camada_x0020_1">
  <metadata id="CorelCorpID_0Corel-Layer"/>
  <g id="_2440701815840">
   <circle class="fil0" cx="35.95" cy="36" r="32.65"/>
   <path class="fil1" d="M87.75 62.1l0.9 0 -4.7 -12.53 -0.91 0 -4.71 12.53 0.89 0 1.23 -3.29 6.08 0 1.22 3.29zm-1.48 -3.98l-5.57 0 2.8 -7.47 2.77 7.47z"/>
   <path id="1" class="fil1" d="M96.43 49.17c-3.58,0 -6.23,2.68 -6.23,6.54 0,3.83 2.65,6.52 6.23,6.52 3.54,0 6.06,-2.65 6.17,-6.25l0 -0.55 -6.55 0 0 0.7 5.71 0c-0.16,3.32 -2.41,5.37 -5.33,5.37 -3.01,0 -5.39,-2.21 -5.39,-5.79 0,-3.6 2.38,-5.81 5.39,-5.81 2.36,0 4.11,1.29 4.82,3.16l0.95 0c-0.91,-2.4 -2.99,-3.89 -5.77,-3.89z"/>
   <polygon id="2" class="fil1" points="111.57,49.28 105.09,49.28 105.09,62.1 111.57,62.1 111.57,61.4 105.91,61.4 105.91,56.02 111.02,56.02 111.02,55.32 105.91,55.32 105.91,49.97 111.57,49.97 "/>
   <polygon id="3" class="fil1" points="122.4,49.29 122.4,60.73 114.88,49.29 114.06,49.29 114.06,62.1 114.88,62.1 114.88,50.63 122.4,62.1 123.23,62.1 123.23,49.29 "/>
   <path id="4" class="fil1" d="M129.84 49.28l-3.6 0 0 12.82 3.6 0c4.36,0 6.77,-2.38 6.77,-6.39 0,-4.02 -2.41,-6.43 -6.77,-6.43zm-2.78 12.12l0 -11.43 2.78 0c3.94,0 5.93,2.19 5.93,5.74 0,3.52 -1.99,5.69 -5.93,5.69l-2.78 0z"/>
   <path id="5" class="fil1" d="M147.59 62.1l0.9 0 -4.7 -12.53 -0.91 0 -4.71 12.53 0.89 0 1.22 -3.29 6.09 0 1.22 3.29zm-1.48 -3.98l-5.57 0 2.8 -7.47 2.77 7.47z"/>
   <polygon id="6" class="fil1" points="150.55,62.1 151.37,62.1 151.37,51.27 156.21,62.1 156.87,62.1 161.69,51.27 161.69,62.1 162.52,62.1 162.52,49.55 161.66,49.55 156.54,61.02 151.43,49.55 150.55,49.55 "/>
   <polygon id="7" class="fil1" points="172.01,49.28 165.53,49.28 165.53,62.1 172.01,62.1 172.01,61.4 166.35,61.4 166.35,56.02 171.46,56.02 171.46,55.32 166.35,55.32 166.35,49.97 172.01,49.97 "/>
   <polygon id="8" class="fil1" points="182.84,49.29 182.84,60.73 175.32,49.29 174.5,49.29 174.5,62.1 175.32,62.1 175.32,50.63 182.84,62.1 183.67,62.1 183.67,49.29 "/>
   <polygon id="9" class="fil1" points="185.64,49.97 189.29,49.97 189.29,62.1 190.11,62.1 190.11,49.97 193.77,49.97 193.77,49.28 185.64,49.28 "/>
   <path id="10" class="fil1" d="M207.67 55.71c0,-3.86 -2.65,-6.54 -6.23,-6.54 -3.58,0 -6.23,2.68 -6.23,6.54 0,3.83 2.65,6.54 6.23,6.54 3.58,0 6.23,-2.71 6.23,-6.54zm-11.62 0c0,-3.62 2.37,-5.83 5.39,-5.83 3.01,0 5.37,2.21 5.37,5.83 0,3.59 -2.36,5.8 -5.37,5.8 -3.02,0 -5.39,-2.21 -5.39,-5.8z"/>
   <path class="fil2" d="M102.75 22.45l-24.99 0c0,-4.86 3.94,-8.81 8.81,-8.81l35.22 0c0.79,0 1.44,0.21 1.94,0.64 0.51,0.42 0.86,0.94 1.07,1.54 0.22,0.61 0.23,1.25 0.04,1.91 -0.18,0.66 -0.59,1.2 -1.23,1.62 -4.02,2.81 -8.02,5.6 -12.01,8.37 -4,2.78 -8.01,5.57 -12.02,8.37l24.03 0 0 0.04c0,4.76 -3.85,8.61 -8.61,8.61l-34.23 0c-0.74,0 -1.37,-0.21 -1.9,-0.63 -0.53,-0.43 -0.89,-0.94 -1.07,-1.55 -0.18,-0.61 -0.18,-1.24 0,-1.91 0.18,-0.66 0.59,-1.2 1.23,-1.62l23.72 -16.58z"/>
   <path class="fil2" d="M166.9 35.22c0,5.26 -4.26,9.52 -9.52,9.52l-15.39 0c-2.17,0 -4.21,-0.41 -6.11,-1.23 -1.9,-0.82 -3.56,-1.93 -4.96,-3.33 -1.4,-1.4 -2.51,-3.06 -3.33,-4.96 -0.82,-1.9 -1.23,-3.94 -1.23,-6.11 0,-2.17 0.41,-4.2 1.23,-6.11 0.82,-1.9 1.93,-3.55 3.33,-4.96 1.4,-1.39 3.06,-2.51 4.96,-3.33 1.9,-0.82 3.94,-1.23 6.11,-1.23l24.51 0c2.17,0 4.21,0.41 6.11,1.23 1.91,0.82 3.56,1.94 4.96,3.33 1.4,1.41 2.51,3.06 3.33,4.96 0.82,1.91 1.23,3.94 1.23,6.11l0 15.63c-5.26,0 -9.52,-4.26 -9.52,-9.52l0 -6.11c0,-1.69 -0.59,-3.13 -1.78,-4.32 -1.19,-1.19 -2.63,-1.79 -4.33,-1.79l-24.51 0c-1.69,0 -3.13,0.6 -4.32,1.79 -1.19,1.19 -1.79,2.63 -1.79,4.32 0,1.7 0.6,3.14 1.79,4.33 1.19,1.19 2.63,1.78 4.32,1.78l24.91 0z"/>
   <path class="fil2" d="M225.53 35.22c0,5.26 -4.26,9.52 -9.52,9.52l-15.39 0c-2.17,0 -4.21,-0.41 -6.11,-1.23 -1.9,-0.82 -3.56,-1.93 -4.96,-3.33 -1.4,-1.4 -2.51,-3.06 -3.33,-4.96 -0.82,-1.9 -1.23,-3.94 -1.23,-6.11 0,-2.17 0.41,-4.2 1.23,-6.11 0.82,-1.9 1.93,-3.55 3.33,-4.96 1.4,-1.39 3.06,-2.51 4.96,-3.33 1.9,-0.82 3.94,-1.23 6.11,-1.23l24.51 0c2.17,0 4.21,0.41 6.11,1.23 1.91,0.82 3.56,1.94 4.96,3.33 1.4,1.41 2.51,3.06 3.33,4.96 0.82,1.91 1.23,3.94 1.23,6.11l0 15.63c-5.26,0 -9.52,-4.26 -9.52,-9.52l0 -6.11c0,-1.69 -0.59,-3.13 -1.78,-4.32 -1.19,-1.19 -2.63,-1.79 -4.33,-1.79l-24.51 0c-1.69,0 -3.13,0.6 -4.32,1.79 -1.19,1.19 -1.79,2.63 -1.79,4.32 0,1.7 0.6,3.14 1.79,4.33 1.19,1.19 2.63,1.78 4.32,1.78l24.91 0z"/>
   <path class="fil2" d="M256 44.74l-9.52 0 0 -40.86c5.25,0 9.51,4.26 9.52,9.5l0 31.36z"/>
   <path class="fil3" d="M64.7 37.34c-0.74,15.88 -14.21,28.15 -30.09,27.41 -15.88,-0.74 -28.15,-14.21 -27.41,-30.09 0.74,-15.88 14.21,-28.15 30.09,-27.41 15.88,0.74 28.15,14.21 27.41,30.09z"/>
   <path class="fil4" d="M67.73 47.44c-9.04,-4.29 -19.72,-4.64 -29.49,-3.5 -7.82,0.92 -15.43,3.06 -22.6,6.22 8.05,-7.91 17.34,-14.4 27.49,-19.54 7.72,-3.9 15.87,-6.94 23.6,-10.81 0.55,-0.28 -0.82,-2.77 -1.94,-2.5 -0.61,0.14 -1.21,0.33 -1.72,0.48 -2.71,0.79 -5.41,1.64 -8.13,2.39 -7.49,2.04 -15.18,2.98 -22.93,2.2 -6.7,-0.66 -15.05,-2.73 -20.25,-5.99 -1.37,-0.86 -3.35,-0.43 -4.76,0.14 -0.48,0.19 -3.35,1.73 -2.04,2.55 6.12,3.84 13.74,5.75 20.82,6.64 6.94,0.88 14.03,0.67 20.93,-0.49 -3.11,1.4 -6.2,2.84 -9.23,4.41 -12.27,6.37 -23.42,14.68 -32.65,24.96 -0.98,1.08 2,4.54 3.34,3.64 14.84,-10.06 36.68,-15.66 53.68,-7.58 1.86,0.88 8.55,-1.95 5.88,-3.22z"/>
   <path class="fil2" d="M35.94 3.96c-16.99,0 -31.19,13.4 -31.99,30.55 -0.4,8.55 2.55,16.74 8.32,23.06 5.76,6.33 13.64,10.04 22.19,10.43 17.64,0.81 32.67,-12.86 33.5,-30.51 0.4,-8.55 -2.56,-16.74 -8.32,-23.07 -5.76,-6.32 -13.65,-10.03 -22.19,-10.43 -0.51,-0.02 -1.01,-0.03 -1.51,-0.03zm0.03 67.99c-0.56,0 -1.13,-0.01 -1.69,-0.04 -9.59,-0.44 -18.44,-4.6 -24.91,-11.7 -6.06,-6.66 -9.35,-15.15 -9.37,-24.09 0,-0.6 0.01,-1.2 0.04,-1.8 0.92,-19.8 17.78,-35.17 37.59,-34.23 9.59,0.44 18.43,4.6 24.9,11.7 6.47,7.1 9.78,16.29 9.34,25.88 -0.9,19.24 -16.84,34.28 -35.9,34.28z"/>
   <path class="fil3" d="M10.77 17.28c-0.09,1.93 -1.73,3.43 -3.66,3.34 -1.94,-0.09 -3.43,-1.73 -3.34,-3.67 0.09,-1.93 1.73,-3.43 3.66,-3.34 1.94,0.09 3.43,1.73 3.34,3.67z"/>
   <path class="fil3" d="M11.52 55.23c-0.1,2.11 -1.89,3.75 -4,3.65 -2.12,-0.1 -3.75,-1.89 -3.65,-4.01 0.1,-2.11 1.89,-3.74 4,-3.64 2.12,0.09 3.75,1.89 3.65,4z"/>
   <path class="fil4" d="M7.69 51.92c-0.78,0 -1.52,0.28 -2.11,0.82 -0.62,0.56 -0.98,1.33 -1.02,2.17 -0.04,0.83 0.25,1.63 0.82,2.25 0.56,0.62 1.33,0.98 2.17,1.02 1.73,0.08 3.19,-1.26 3.27,-2.98 0.04,-0.84 -0.25,-1.64 -0.81,-2.26 -0.56,-0.62 -1.33,-0.98 -2.17,-1.02 -0.05,0 -0.1,0 -0.15,0zm0.01 7.66c-0.07,0 -0.15,0 -0.22,-0.01 -1.2,-0.05 -2.32,-0.57 -3.13,-1.47 -0.82,-0.89 -1.24,-2.05 -1.18,-3.26 0.06,-1.21 0.58,-2.32 1.48,-3.13 0.89,-0.82 2.05,-1.23 3.25,-1.18 2.5,0.12 4.43,2.24 4.32,4.73 -0.12,2.43 -2.12,4.32 -4.52,4.32z"/>
   <path class="fil3" d="M11.1 17.29c-0.1,2.12 -1.9,3.75 -4.01,3.65 -2.11,-0.1 -3.75,-1.89 -3.65,-4 0.1,-2.11 1.89,-3.75 4.01,-3.65 2.11,0.1 3.74,1.89 3.65,4z"/>
   <path class="fil4" d="M7.27 13.98c-1.66,0 -3.05,1.31 -3.13,2.99 -0.04,0.84 0.25,1.64 0.81,2.26 0.57,0.62 1.34,0.98 2.17,1.02 0.84,0.04 1.64,-0.25 2.26,-0.82 0.62,-0.56 0.98,-1.33 1.02,-2.17 0.04,-0.83 -0.25,-1.64 -0.81,-2.25 -0.57,-0.62 -1.34,-0.99 -2.18,-1.02 -0.04,-0.01 -0.09,-0.01 -0.14,-0.01zm0 7.66c-0.07,0 -0.14,0 -0.21,0 -2.5,-0.12 -4.43,-2.24 -4.31,-4.73 0.11,-2.5 2.24,-4.42 4.73,-4.32 1.21,0.06 2.32,0.58 3.14,1.48 0.81,0.89 1.23,2.05 1.17,3.26 -0.11,2.42 -2.12,4.31 -4.52,4.31z"/>
   <path class="fil3" d="M70.27 50.37c-0.1,2.11 -1.89,3.75 -4.01,3.65 -2.11,-0.1 -3.74,-1.89 -3.64,-4 0.1,-2.12 1.89,-3.75 4,-3.65 2.11,0.1 3.75,1.89 3.65,4z"/>
   <path class="fil4" d="M66.44 47.06c-1.66,0 -3.05,1.31 -3.13,2.99 -0.04,0.83 0.25,1.64 0.82,2.25 0.56,0.62 1.33,0.99 2.17,1.02 0.84,0.05 1.64,-0.24 2.25,-0.81 0.62,-0.56 0.99,-1.33 1.02,-2.17 0.08,-1.73 -1.25,-3.2 -2.98,-3.28 -0.05,0 -0.1,0 -0.15,0zm0.01 7.66c-0.07,0 -0.15,0 -0.22,0 -2.49,-0.12 -4.43,-2.24 -4.31,-4.74 0.12,-2.49 2.24,-4.42 4.73,-4.31 2.5,0.12 4.43,2.24 4.32,4.73 -0.06,1.21 -0.58,2.33 -1.48,3.14 -0.84,0.77 -1.91,1.18 -3.04,1.18z"/>
  </g>
 </g>
</svg>
