<?xml version="1.0" encoding="UTF-8"?>
<!DOCTYPE svg PUBLIC "-//W3C//DTD SVG 1.1//EN" "http://www.w3.org/Graphics/SVG/1.1/DTD/svg11.dtd">
<!-- Creator: CorelDRAW 2018 (64 Bit Versão de avaliação) -->
<svg xmlns="http://www.w3.org/2000/svg" xml:space="preserve" width="50px" height="71px" version="1.1" style="shape-rendering:geometricPrecision; text-rendering:geometricPrecision; image-rendering:optimizeQuality; fill-rule:evenodd; clip-rule:evenodd"
viewBox="0 0 256 91"
 xmlns:xlink="http://www.w3.org/1999/xlink">
 <defs>
  <style type="text/css">
   <![CDATA[
    .str1 {stroke:white;stroke-width:8.33;stroke-miterlimit:10}
    .str0 {stroke:#373435;stroke-width:2.36;stroke-miterlimit:22.9256}
    .fil5 {fill:none;fill-rule:nonzero}
    .fil0 {fill:#FEFEFE}
    .fil8 {fill:#E30613}
    .fil9 {fill:#FEFEFE;fill-rule:nonzero}
    .fil7 {fill:#848688;fill-rule:nonzero}
    .fil10 {fill:#373435;fill-rule:nonzero}
    .fil2 {fill:#222124;fill-rule:nonzero}
    .fil4 {fill:#1D1D1B;fill-rule:nonzero}
    .fil1 {fill:#E30613;fill-rule:nonzero}
    .fil6 {fill:#E30613;fill-rule:nonzero}
    .fil3 {fill:white;fill-rule:nonzero}
   ]]>
  </style>
 </defs>
 <g id="Camada_x0020_1">
  <metadata id="CorelCorpID_0Corel-Layer"/>
  <rect class="fil0 str0" x="-5938.82" y="-7852.74" width="2792.85" height="2140.5"/>
  <path class="fil1" d="M-3188.24 -5852.29c0,26.23 -20.75,47.5 -46.37,47.5l-2610.86 0c-25.63,0 -46.37,-21.27 -46.37,-47.5l0 -2004.97 2703.6 0 0 2004.97zm-37.87 -2889.91l-207.45 0 0 262.91c0,105.23 -83.61,190.89 -186.4,190.89 -102.79,0 -186.39,-85.66 -186.39,-190.89l0 -262.91 -1467.37 0 0 262.91c0,105.23 -83.62,190.89 -186.41,190.89 -102.8,0 -186.42,-85.66 -186.42,-190.89l0 -262.91 -207.46 0c-112.42,0 -203.55,93.33 -203.55,208.41l0 2690.26c0,115.06 91.13,208.35 203.55,208.35l2627.9 0c112.41,0 203.58,-93.29 203.58,-208.35l0 -2690.26c0,-115.08 -91.17,-208.41 -203.58,-208.41z"/>
  <path class="fil2" d="M-5460.13 -8293.21l0 0c66.33,0 120.12,-53.8 120.12,-120.16l0 -513.64c0,-66.36 -53.79,-120.1 -120.12,-120.1l0 0c-66.34,0 -120.13,53.74 -120.13,120.1l0 513.64c0,66.36 53.79,120.16 120.13,120.16z"/>
  <path class="fil2" d="M-3619.96 -8293.21l0 0c66.36,0 120.1,-53.8 120.1,-120.16l0 -513.64c0,-66.36 -53.74,-120.1 -120.1,-120.1l0 0c-66.36,0 -120.16,53.74 -120.16,120.1l0 513.64c0,66.36 53.8,120.16 120.16,120.16z"/>
  <g id="_2554787418544">
   <path class="fil1" d="M-3786.46 -6783.44c-19.42,416.2 -372.53,737.84 -788.73,718.42 -416.18,-19.39 -737.85,-372.53 -718.43,-788.73 19.42,-416.18 372.54,-737.82 788.74,-718.42 416.17,19.42 737.84,372.53 718.42,788.73z"/>
   <path class="fil3" d="M-3707.24 -6518.7c-236.73,-112.5 -516.81,-121.74 -772.84,-91.74 -204.99,24.04 -404.39,80.13 -592.26,163.02 210.98,-207.43 454.44,-377.44 720.43,-512.09 202.33,-102.43 416.03,-181.96 618.55,-283.51 14.51,-7.28 -21.5,-72.45 -50.87,-65.56 -16.01,3.75 -31.57,8.87 -45.04,12.79 -71.13,20.68 -141.75,42.91 -213.21,62.44 -196.22,53.68 -397.81,78.11 -600.87,57.87 -175.52,-17.48 -394.44,-71.52 -530.87,-157.06 -35.9,-22.53 -87.72,-11.28 -124.76,3.66 -12.46,5.01 -87.78,45.27 -53.51,66.77 160.57,100.66 360.28,150.73 545.92,174.12 181.88,22.93 367.62,17.5 548.4,-12.94 -81.42,36.82 -162.46,74.44 -241.84,115.65 -321.67,167.06 -613.85,384.87 -855.84,654.12 -25.63,28.52 52.5,119.09 87.51,95.38 389.07,-263.54 961.64,-410.34 1407.16,-198.62 48.54,23.05 223.9,-51.05 153.94,-84.3z"/>
   <path class="fil4" d="M-4540.5 -7658.36c-445.23,0 -817.41,351.34 -838.4,800.64 -10.44,224.06 66.99,438.79 218.04,604.62 151.05,165.83 357.63,262.9 581.67,273.36 462.46,21.03 856.42,-337.18 878,-799.71 10.44,-224.08 -66.98,-438.79 -218.01,-604.62 -151.08,-165.85 -357.66,-262.92 -581.69,-273.38 -13.25,-0.6 -26.49,-0.91 -39.61,-0.91zm0.98 1782.09c-14.76,0 -29.54,-0.33 -44.41,-1.03 -251.45,-11.73 -483.27,-120.66 -652.75,-306.75 -169.48,-186.08 -256.37,-427.01 -244.65,-678.43 24.22,-519.03 466.11,-922.05 985.2,-897.39 251.42,11.7 483.24,120.64 652.74,306.73 169.48,186.07 256.36,427.03 244.64,678.44 -23.5,504.14 -441.21,898.43 -940.77,898.43z"/>
   <path class="fil1" d="M-5200.07 -7309.24c-2.37,50.68 -45.37,89.87 -96.06,87.5 -50.69,-2.35 -89.86,-45.36 -87.51,-96.06 2.37,-50.68 45.38,-89.87 96.08,-87.5 50.68,2.36 89.87,45.38 87.49,96.06z"/>
   <path class="fil5 str1" d="M-5200.07 -7309.24c-2.37,50.68 -45.37,89.87 -96.06,87.5 -50.69,-2.35 -89.86,-45.36 -87.51,-96.06 2.37,-50.68 45.38,-89.87 96.08,-87.5 50.68,2.36 89.87,45.38 87.49,96.06z"/>
   <path class="fil1" d="M-5180.42 -6314.54c-2.58,55.39 -49.59,98.21 -104.97,95.63 -55.39,-2.6 -98.21,-49.59 -95.63,-104.97 2.6,-55.41 49.59,-98.21 104.97,-95.63 55.41,2.58 98.21,49.59 95.63,104.97z"/>
   <path class="fil3" d="M-5280.82 -6401.36c-20.49,0 -39.97,7.51 -55.2,21.42 -16.24,14.78 -25.73,34.97 -26.74,56.89 -1.03,21.94 6.54,42.92 21.32,59.15 14.77,16.23 34.97,25.73 56.89,26.74 45.48,2.04 83.78,-32.98 85.9,-78.21 1.02,-21.94 -6.56,-42.95 -21.33,-59.14 -14.78,-16.25 -35,-25.73 -56.9,-26.75 -1.32,-0.06 -2.64,-0.1 -3.94,-0.1zm0.19 200.81c-1.88,0 -3.74,-0.05 -5.62,-0.13 -31.67,-1.48 -60.85,-15.19 -82.19,-38.65 -21.35,-23.42 -32.29,-53.76 -30.81,-85.41 1.49,-31.67 15.19,-60.86 38.63,-82.19 23.42,-21.36 53.82,-32.17 85.43,-30.81 65.36,3.05 116.04,58.71 113,124.06 -2.97,63.47 -55.54,113.13 -118.44,113.13z"/>
   <path class="fil1" d="M-5191.56 -7308.84c-2.58,55.38 -49.58,98.2 -104.96,95.62 -55.39,-2.59 -98.21,-49.58 -95.63,-104.97 2.6,-55.4 49.58,-98.2 104.97,-95.62 55.41,2.58 98.2,49.58 95.62,104.97z"/>
   <path class="fil3" d="M-5291.89 -7395.67c-43.54,0 -79.97,34.37 -82.01,78.33 -1.03,21.91 6.54,42.92 21.31,59.14 14.78,16.22 35,25.73 56.92,26.74 21.85,1.08 42.9,-6.56 59.14,-21.33 16.22,-14.77 25.71,-35 26.72,-56.9 1.03,-21.93 -6.54,-42.94 -21.31,-59.13 -14.76,-16.25 -34.98,-25.74 -56.92,-26.75 -1.28,-0.06 -2.58,-0.1 -3.85,-0.1zm0.1 200.83c-1.86,0 -3.72,-0.07 -5.59,-0.15 -65.35,-3.04 -116.04,-58.69 -113,-124.04 3.05,-65.38 58.83,-115.85 124.06,-113.02 31.65,1.48 60.85,15.18 82.21,38.63 21.33,23.42 32.27,53.76 30.79,85.43 -2.95,63.47 -55.56,113.15 -118.47,113.15z"/>
   <path class="fil1" d="M-3640.58 -6441.87c-2.58,55.38 -49.58,98.2 -104.97,95.62 -55.38,-2.6 -98.21,-49.59 -95.63,-104.97 2.61,-55.41 49.59,-98.21 104.98,-95.63 55.4,2.58 98.2,49.59 95.62,104.98z"/>
   <path class="fil3" d="M-3740.9 -6528.72c-43.57,0 -79.98,34.38 -82.03,78.34 -1.03,21.91 6.56,42.92 21.32,59.14 14.78,16.22 35,25.73 56.91,26.74 22.12,1.1 42.94,-6.54 59.14,-21.34 16.22,-14.75 25.73,-34.97 26.75,-56.89 2.1,-45.25 -32.98,-83.76 -78.24,-85.88 -1.29,-0.06 -2.57,-0.11 -3.85,-0.11zm0.18 200.83c-1.89,0 -3.79,-0.06 -5.67,-0.14 -65.38,-3.04 -116.06,-58.69 -113.03,-124.05 3.06,-65.37 58.84,-115.82 124.09,-113.01 65.37,3.07 116.04,58.73 112.98,124.07 -1.49,31.66 -15.19,60.86 -38.63,82.2 -22.02,20.05 -50.15,30.93 -79.74,30.93z"/>
  </g>
  <path class="fil0" d="M6 19.46l69.7 1.44c7.12,0.14 5.78,6.77 5.78,13.92l0 42.95c0,7.14 -5.83,12.99 -12.95,12.99l-55.51 0c-7.12,0 -12.94,-5.85 -12.94,-12.99l0 -42.95c0,-7.15 -1.2,-15.51 5.92,-15.36z"/>
  <path class="fil1" d="M62.19 57.1c-0.55,11.89 -10.64,21.07 -22.52,20.52 -11.89,-0.56 -21.07,-10.64 -20.52,-22.52 0.56,-11.89 10.64,-21.07 22.53,-20.52 11.88,0.55 21.07,10.64 20.51,22.52z"/>
  <path class="fil3" d="M64.45 64.66c-6.76,-3.21 -14.75,-3.47 -22.07,-2.62 -5.85,0.69 -11.54,2.29 -16.91,4.66 6.03,-5.93 12.98,-10.78 20.57,-14.63 5.78,-2.92 11.88,-5.19 17.67,-8.09 0.41,-0.21 -0.62,-2.07 -1.46,-1.87 -0.45,0.1 -0.9,0.25 -1.28,0.36 -2.03,0.59 -4.05,1.23 -6.09,1.79 -5.6,1.53 -11.36,2.23 -17.16,1.65 -5.01,-0.5 -11.26,-2.04 -15.16,-4.49 -1.02,-0.64 -2.5,-0.32 -3.56,0.11 -0.36,0.14 -2.51,1.29 -1.53,1.9 4.59,2.88 10.29,4.31 15.59,4.98 5.19,0.65 10.5,0.5 15.66,-0.37 -2.32,1.05 -4.64,2.12 -6.91,3.3 -9.18,4.77 -17.52,10.99 -24.43,18.68 -0.74,0.81 1.5,3.4 2.49,2.72 11.12,-7.52 27.47,-11.72 40.19,-5.67 1.38,0.66 6.39,-1.46 4.39,-2.41z"/>
  <path class="fil4" d="M40.66 32.12c-12.72,0 -23.34,10.03 -23.94,22.86 -0.3,6.4 1.91,12.53 6.22,17.27 4.32,4.73 10.22,7.5 16.61,7.8 13.21,0.6 24.46,-9.63 25.08,-22.83 0.29,-6.4 -1.92,-12.53 -6.23,-17.27 -4.31,-4.73 -10.21,-7.51 -16.61,-7.81 -0.38,-0.01 -0.76,-0.02 -1.13,-0.02zm0.03 50.89c-0.42,0 -0.85,-0.01 -1.27,-0.03 -7.18,-0.34 -13.8,-3.45 -18.64,-8.76 -4.84,-5.31 -7.32,-12.19 -6.99,-19.37 0.69,-14.83 13.31,-26.33 28.14,-25.63 7.18,0.33 13.79,3.44 18.63,8.76 4.84,5.31 7.33,12.19 6.99,19.37 -0.67,14.4 -12.6,25.66 -26.86,25.66z"/>
  <path class="fil1" d="M21.82 42.09c-0.06,1.45 -1.29,2.56 -2.74,2.5 -1.45,-0.07 -2.57,-1.3 -2.5,-2.75 0.07,-1.44 1.3,-2.56 2.75,-2.49 1.44,0.06 2.56,1.29 2.49,2.74z"/>
  <path class="fil1" d="M22.39 70.49c-0.08,1.58 -1.42,2.81 -3,2.73 -1.58,-0.07 -2.81,-1.41 -2.73,-2.99 0.07,-1.59 1.41,-2.81 2.99,-2.73 1.59,0.07 2.81,1.41 2.74,2.99z"/>
  <path class="fil3" d="M19.52 68.01c-0.59,0 -1.14,0.22 -1.58,0.62 -0.46,0.42 -0.73,0.99 -0.76,1.62 -0.03,0.63 0.18,1.23 0.61,1.69 0.42,0.46 1,0.73 1.62,0.76 1.3,0.06 2.39,-0.94 2.45,-2.23 0.03,-0.63 -0.18,-1.23 -0.6,-1.69 -0.43,-0.46 -1,-0.73 -1.63,-0.76 -0.04,0 -0.07,-0.01 -0.11,-0.01zm0 5.74c-0.05,0 -0.1,0 -0.16,-0.01 -0.9,-0.04 -1.73,-0.43 -2.34,-1.1 -0.61,-0.67 -0.93,-1.54 -0.88,-2.44 0.04,-0.9 0.43,-1.74 1.1,-2.35 0.67,-0.6 1.54,-0.91 2.44,-0.88 1.87,0.09 3.31,1.68 3.23,3.55 -0.09,1.81 -1.59,3.23 -3.39,3.23z"/>
  <path class="fil3" d="M19.2 39.62c-1.24,0 -2.28,0.98 -2.34,2.24 -0.03,0.62 0.19,1.22 0.61,1.69 0.42,0.46 1,0.73 1.62,0.76 0.63,0.03 1.23,-0.19 1.69,-0.61 0.47,-0.42 0.74,-1 0.77,-1.62 0.03,-0.63 -0.19,-1.23 -0.61,-1.69 -0.42,-0.47 -1,-0.74 -1.63,-0.77 -0.03,0 -0.07,0 -0.11,0zm0 5.73c-0.05,0 -0.1,0 -0.15,0 -1.87,-0.09 -3.32,-1.68 -3.23,-3.54 0.09,-1.87 1.68,-3.31 3.54,-3.23 0.91,0.04 1.74,0.44 2.35,1.1 0.61,0.67 0.92,1.54 0.88,2.44 -0.09,1.82 -1.59,3.23 -3.39,3.23z"/>
  <path class="fil1" d="M66.36 66.86c-0.08,1.58 -1.42,2.8 -3,2.73 -1.58,-0.08 -2.8,-1.42 -2.73,-3 0.07,-1.58 1.41,-2.8 3,-2.73 1.58,0.07 2.8,1.42 2.73,3z"/>
  <path class="fil3" d="M63.49 64.38c-1.24,0 -2.28,0.98 -2.34,2.23 -0.03,0.63 0.19,1.23 0.61,1.69 0.42,0.47 1,0.74 1.62,0.77 0.63,0.03 1.23,-0.19 1.69,-0.61 0.47,-0.42 0.74,-1 0.77,-1.63 0.06,-1.29 -0.95,-2.39 -2.24,-2.45 -0.04,0 -0.07,0 -0.11,0zm0.01 5.73c-0.06,0 -0.11,0 -0.16,0 -1.87,-0.09 -3.32,-1.68 -3.23,-3.54 0.09,-1.87 1.68,-3.31 3.54,-3.23 1.87,0.09 3.31,1.68 3.23,3.54 -0.04,0.9 -0.44,1.74 -1.11,2.35 -0.62,0.57 -1.43,0.88 -2.27,0.88z"/>
  <path class="fil6" d="M24.55 83.75c-3.74,-0.17 -7.5,-0.1 -11.25,-0.15 -4.22,-0.07 -6.99,-2.79 -7,-6.99 -0.02,-8.23 0.01,-16.46 0.03,-24.68 0,-0.38 0.05,-0.75 0.09,-1.24 0,-0.94 -0.02,-9.68 -0.04,-9.91 -0.02,-0.31 -0.23,-0.72 -0.47,-0.86 -1.85,-1.03 -3.73,-2.01 -5.8,-3.12 -0.06,0.52 -0.11,0.76 -0.11,1 0,13.78 -0.02,27.57 0.06,41.35 0.01,1.62 0.3,3.36 0.97,4.82 1.99,4.32 5.44,6.74 10.3,6.77 8.44,0.04 30.39,0 38.83,0 0.57,0 -18.5,-6.67 -25.61,-6.99z"/>
  <path class="fil6" d="M0.01 30.35c0,0.29 0.26,0.68 0.51,0.84 1.81,1.1 3.65,2.16 5.72,3.37 0.01,-2.34 0.87,-3.96 2.54,-5.16 1.38,-0.98 2.94,-1.29 4.6,-1.29 9.15,0 45.76,0 54.91,0 1.66,0 3.22,0.31 4.6,1.29 1.66,1.2 2.53,2.82 2.54,5.16 2.06,-1.21 3.9,-2.27 5.71,-3.37 0.26,-0.16 0.51,-0.55 0.51,-0.84 -0.02,-4.25 0.12,-8.52 -0.21,-12.76 -0.37,-4.69 -4.72,-8.41 -9.42,-8.49 -0.23,-0.01 -1.52,-0.01 -3.47,-0.01l0 3.56c0,3.67 -2.98,6.65 -6.64,6.65 -3.66,0 -6.64,-2.98 -6.64,-6.65l0 -3.54c-5.97,0.02 -22.9,0.02 -28.87,0l0 3.54c0,3.67 -2.98,6.65 -6.64,6.65 -3.67,0 -6.64,-2.98 -6.64,-6.65l0 -3.56c-1.95,0 -3.24,0 -3.47,0.01 -4.7,0.08 -9.06,3.8 -9.42,8.49 -0.33,4.24 -0.19,8.51 -0.22,12.76z"/>
  <path class="fil7" d="M19.76 16.41c2.07,0 3.75,-1.68 3.75,-3.76l0 -8.66c0,-2.07 -1.68,-3.75 -3.75,-3.75 -2.08,0 -3.76,1.68 -3.76,3.75l0 8.66c0,2.08 1.68,3.76 3.76,3.76z"/>
  <path class="fil6" d="M81.66 37.8c0.01,-0.24 -0.04,-0.48 -0.1,-1 -2.08,1.11 -3.95,2.09 -5.8,3.12 -0.25,0.14 -0.45,0.55 -0.48,0.86 0.06,12.24 0,-0.86 -0.03,9.91 0.03,0.49 0.08,0.86 0.09,1.24 0.01,8.22 0.05,16.45 0.03,24.68 -0.01,4.2 -2.78,6.92 -7.01,6.99 -13.08,0.19 -44.68,7.1 -40.05,7.1 8.44,0.01 33.58,0.08 42.02,0.04 4.87,-0.03 8.31,-2.45 10.31,-6.77 0.67,-1.46 0.96,-3.2 0.97,-4.82 0.08,-13.78 0.05,-27.57 0.05,-41.35z"/>
  <path class="fil7" d="M61.91 16.41c2.07,0 3.75,-1.68 3.75,-3.76l0 -8.66c0,-2.07 -1.68,-3.75 -3.75,-3.75 -2.07,0 -3.75,1.68 -3.75,3.75l0 8.66c0,2.08 1.68,3.76 3.75,3.76z"/>
  <polygon class="fil8" points="12.65,83.56 68.69,83.59 68.69,90.75 12.65,90.75 "/>
  <path class="fil9" d="M112.44 41.78l-23.4 0c0,-4.55 3.69,-8.24 8.24,-8.24l33 0c0.74,0 1.35,0.19 1.82,0.59 0.47,0.4 0.8,0.88 1,1.45 0.2,0.57 0.21,1.16 0.04,1.78 -0.17,0.62 -0.56,1.13 -1.15,1.53 -3.77,2.62 -7.52,5.24 -11.26,7.84 -3.74,2.6 -7.5,5.21 -11.26,7.84l22.52 0 0 0.03c0,4.45 -3.61,8.07 -8.07,8.07l-32.06 0c-0.7,0 -1.29,-0.2 -1.78,-0.6 -0.5,-0.39 -0.83,-0.88 -1.01,-1.45 -0.17,-0.57 -0.17,-1.16 0,-1.78 0.18,-0.62 0.56,-1.13 1.15,-1.52l22.22 -15.54z"/>
  <path class="fil9" d="M172.54 53.75c0,4.92 -4,8.92 -8.92,8.92l-14.42 0c-2.03,0 -3.94,-0.39 -5.72,-1.16 -1.78,-0.76 -3.33,-1.8 -4.64,-3.12 -1.32,-1.31 -2.36,-2.86 -3.13,-4.64 -0.76,-1.78 -1.15,-3.69 -1.15,-5.72 0,-2.03 0.39,-3.94 1.15,-5.73 0.77,-1.78 1.81,-3.33 3.13,-4.64 1.31,-1.31 2.86,-2.35 4.64,-3.12 1.78,-0.77 3.69,-1.15 5.72,-1.15l22.97 0c2.03,0 3.93,0.38 5.72,1.15 1.78,0.77 3.33,1.81 4.64,3.12 1.31,1.31 2.35,2.86 3.12,4.64 0.77,1.79 1.15,3.7 1.15,5.73l0 14.64c-4.92,0 -8.91,-4 -8.91,-8.92l0 -5.72c0,-1.59 -0.56,-2.94 -1.68,-4.05 -1.11,-1.12 -2.46,-1.68 -4.04,-1.68l-22.97 0c-1.58,0 -2.93,0.56 -4.05,1.68 -1.11,1.11 -1.67,2.46 -1.67,4.05 0,1.58 0.56,2.93 1.67,4.05 1.12,1.11 2.47,1.67 4.05,1.67l23.34 0z"/>
  <path class="fil9" d="M227.46 53.75c0,4.92 -4,8.92 -8.92,8.92l-14.42 0c-2.03,0 -3.94,-0.39 -5.72,-1.16 -1.78,-0.76 -3.33,-1.8 -4.64,-3.12 -1.32,-1.31 -2.36,-2.86 -3.12,-4.64 -0.77,-1.78 -1.16,-3.69 -1.16,-5.72 0,-2.03 0.39,-3.94 1.16,-5.73 0.76,-1.78 1.8,-3.33 3.12,-4.64 1.31,-1.31 2.86,-2.35 4.64,-3.12 1.78,-0.77 3.69,-1.15 5.72,-1.15l22.97 0c2.03,0 3.93,0.38 5.72,1.15 1.78,0.77 3.33,1.81 4.64,3.12 1.31,1.31 2.35,2.86 3.12,4.64 0.77,1.79 1.16,3.7 1.16,5.73l0 14.64c-4.93,0 -8.92,-4 -8.92,-8.92l0 -5.72c0,-1.59 -0.56,-2.94 -1.67,-4.05 -1.12,-1.12 -2.47,-1.68 -4.05,-1.68l-22.97 0c-1.58,0 -2.93,0.56 -4.05,1.68 -1.11,1.11 -1.67,2.46 -1.67,4.05 0,1.58 0.56,2.93 1.67,4.05 1.12,1.11 2.47,1.67 4.05,1.67l23.34 0z"/>
  <path class="fil9" d="M256 62.67l-8.92 0 0 -38.27c4.93,0 8.92,3.99 8.92,8.91l0 29.36z"/>
  <path class="fil9" d="M97.42 78.89l0.81 0 -4.23 -11.27 -0.82 0 -4.24 11.27 0.81 0 1.1 -2.96 5.47 0 1.1 2.96zm-1.33 -3.58l-5.01 0 2.51 -6.72 2.5 6.72z"/>
  <path id="1" class="fil9" d="M105.22 67.26c-3.22,0 -5.6,2.41 -5.6,5.88 0,3.45 2.38,5.86 5.6,5.86 3.19,0 5.46,-2.38 5.56,-5.62l0 -0.49 -5.9 0 0 0.63 5.14 0c-0.15,2.99 -2.17,4.83 -4.8,4.83 -2.71,0 -4.84,-1.99 -4.84,-5.21 0,-3.24 2.13,-5.23 4.84,-5.23 2.12,0 3.7,1.17 4.34,2.85l0.85 0c-0.82,-2.16 -2.69,-3.5 -5.19,-3.5z"/>
  <polygon id="2" class="fil9" points="118.84,67.36 113.01,67.36 113.01,78.89 118.84,78.89 118.84,78.26 113.75,78.26 113.75,73.42 118.35,73.42 118.35,72.79 113.75,72.79 113.75,67.98 118.84,67.98 "/>
  <polygon id="3" class="fil9" points="128.58,67.37 128.58,77.66 121.81,67.37 121.08,67.37 121.08,78.89 121.81,78.89 121.81,68.57 128.58,78.89 129.32,78.89 129.32,67.37 "/>
  <path id="4" class="fil9" d="M135.27 67.36l-3.24 0 0 11.53 3.24 0c3.93,0 6.09,-2.14 6.09,-5.75 0,-3.62 -2.16,-5.78 -6.09,-5.78zm-2.5 10.9l0 -10.28 2.5 0c3.55,0 5.34,1.97 5.34,5.16 0,3.17 -1.79,5.12 -5.34,5.12l-2.5 0z"/>
  <path id="5" class="fil9" d="M151.24 78.89l0.8 0 -4.22 -11.27 -0.82 0 -4.24 11.27 0.81 0 1.1 -2.96 5.47 0 1.1 2.96zm-1.33 -3.58l-5.01 0 2.51 -6.72 2.5 6.72z"/>
  <polygon id="6" class="fil9" points="153.9,78.89 154.64,78.89 154.64,69.15 158.99,78.89 159.58,78.89 163.92,69.15 163.92,78.89 164.66,78.89 164.66,67.6 163.89,67.6 159.29,77.92 154.69,67.6 153.9,67.6 "/>
  <polygon id="7" class="fil9" points="173.2,67.36 167.37,67.36 167.37,78.89 173.2,78.89 173.2,78.26 168.11,78.26 168.11,73.42 172.71,73.42 172.71,72.79 168.11,72.79 168.11,67.98 173.2,67.98 "/>
  <polygon id="8" class="fil9" points="182.94,67.37 182.94,77.66 176.17,67.37 175.44,67.37 175.44,78.89 176.17,78.89 176.17,68.57 182.94,78.89 183.68,78.89 183.68,67.37 "/>
  <polygon id="9" class="fil9" points="185.46,67.98 188.74,67.98 188.74,78.89 189.48,78.89 189.48,67.98 192.77,67.98 192.77,67.36 185.46,67.36 "/>
  <path id="10" class="fil9" d="M205.27 73.14c0,-3.47 -2.38,-5.88 -5.6,-5.88 -3.22,0 -5.61,2.41 -5.61,5.88 0,3.45 2.39,5.88 5.61,5.88 3.22,0 5.6,-2.43 5.6,-5.88zm-10.45 0c0,-3.25 2.14,-5.24 4.85,-5.24 2.71,0 4.83,1.99 4.83,5.24 0,3.24 -2.12,5.22 -4.83,5.22 -2.71,0 -4.85,-1.98 -4.85,-5.22z"/>
  <path id="11" class="fil9" d="M214.38 75.98c0,-4.34 -6.43,-2.05 -6.43,-5.78 0,-1.46 1.26,-2.33 2.77,-2.32 1.81,0 2.65,1.17 2.81,1.97l0.79 0c-0.23,-1.34 -1.41,-2.61 -3.58,-2.61 -2.15,0 -3.53,1.33 -3.53,2.97 0,4.39 6.44,2.06 6.44,5.79 0,1.31 -1.07,2.36 -2.81,2.36 -2.17,0 -2.89,-1.36 -3.03,-2.31l-0.77 0c0.13,1.61 1.48,2.95 3.8,2.95 2.36,0 3.54,-1.54 3.54,-3.02z"/>
  <g id="_2554787470096">
   <path class="fil4" d="M-1986.21 -7232.35l-835.11 0c0,-162.5 131.76,-294.26 294.27,-294.26l1177.14 0c26.52,0 48.16,7.05 64.96,21.22 16.77,14.14 28.67,31.38 35.77,51.67 7.09,20.34 7.53,41.56 1.32,63.63 -6.2,22.12 -19.88,40.25 -41.06,54.37 -134.38,93.66 -268.25,186.91 -401.66,279.68 -133.52,92.81 -267.39,186.04 -401.66,279.72l803.32 0 0 1.15c0,158.95 -128.86,287.81 -287.81,287.81l-1143.86 0c-24.76,0 -45.98,-7.03 -63.64,-21.22 -17.67,-14.12 -29.6,-31.34 -35.8,-51.67 -6.12,-20.31 -6.12,-41.49 0,-63.68 6.2,-22.07 19.92,-40.16 41.1,-54.32l792.72 -554.1z"/>
   <path class="fil4" d="M157.66 -6805.48c0,175.68 -142.44,318.12 -318.13,318.12l-514.33 0c-72.48,0 -140.54,-13.65 -204.14,-41.09 -63.64,-27.38 -118.9,-64.48 -165.7,-111.34 -46.86,-46.84 -83.99,-102.1 -111.37,-165.69 -27.41,-63.65 -41.09,-131.67 -41.09,-204.15 0,-72.46 13.68,-140.51 41.09,-204.15 27.38,-63.64 64.51,-118.86 111.37,-165.73 46.8,-46.77 102.06,-83.88 165.7,-111.34 63.6,-27.37 131.66,-41.07 204.14,-41.07l819.21 0c72.45,0 140.54,13.7 204.14,41.07 63.64,27.46 118.86,64.57 165.7,111.34 46.83,46.87 83.92,102.09 111.36,165.73 27.39,63.64 41.11,131.69 41.11,204.15l0 522.27c-175.73,0 -318.17,-142.44 -318.17,-318.12l0 -204.15c0,-56.55 -19.88,-104.71 -59.66,-144.48 -39.78,-39.78 -87.94,-59.67 -144.48,-59.67l-819.21 0c-56.61,0 -104.73,19.89 -144.51,59.67 -39.78,39.77 -59.63,87.93 -59.63,144.48 0,56.58 19.85,104.73 59.63,144.48 39.78,39.78 87.9,59.67 144.51,59.67l832.46 0z"/>
   <path class="fil4" d="M2117.03 -6805.48c0,175.68 -142.44,318.12 -318.13,318.12l-514.33 0c-72.48,0 -140.53,-13.65 -204.14,-41.09 -63.65,-27.38 -118.89,-64.48 -165.7,-111.34 -46.87,-46.84 -83.99,-102.1 -111.37,-165.69 -27.41,-63.65 -41.1,-131.67 -41.1,-204.15 0,-72.46 13.69,-140.51 41.1,-204.15 27.38,-63.64 64.5,-118.86 111.37,-165.73 46.81,-46.77 102.05,-83.88 165.7,-111.34 63.61,-27.37 131.66,-41.07 204.14,-41.07l819.2 0c72.46,0 140.5,13.7 204.15,41.07 63.64,27.46 118.85,64.57 165.69,111.34 46.8,46.87 83.93,102.09 111.38,165.73 27.33,63.64 41.1,131.69 41.1,204.15l0 522.27c-175.73,0 -318.17,-142.44 -318.17,-318.12l0 -204.15c0,-56.55 -19.89,-104.71 -59.66,-144.48 -39.78,-39.78 -87.94,-59.67 -144.49,-59.67l-819.2 0c-56.61,0 -104.74,19.89 -144.51,59.67 -39.78,39.77 -59.63,87.93 -59.63,144.48 0,56.58 19.85,104.73 59.63,144.48 39.77,39.78 87.9,59.67 144.51,59.67l832.46 0z"/>
   <path class="fil4" d="M3135.36 -6487.36l-318.14 0 0 -1365.38c175.7,0 318.14,142.44 318.14,318.13l0 1047.25z"/>
   <path class="fil10" d="M-2522.2 -5908.62l28.72 0 -150.63 -402.06 -29.3 0 -151.21 402.06 28.72 0 39.26 -105.5 195.17 0 39.27 105.5zm-47.47 -127.77l-178.76 0 89.67 -239.71 89.09 239.71z"/>
   <path id="1" class="fil10" d="M-2243.81 -6323.57c-114.87,0 -199.86,86.15 -199.86,209.82 0,123.08 84.99,209.23 199.86,209.23 113.7,0 194.58,-84.98 198.1,-200.44l0 -17.58 -210.41 0 0 22.27 183.45 0c-5.28,106.67 -77.37,172.31 -171.14,172.31 -96.71,0 -172.9,-70.92 -172.9,-185.79 0,-115.46 76.19,-186.38 172.9,-186.38 75.61,0 131.87,41.61 154.73,101.4l30.47 0c-29.3,-76.78 -96.11,-124.84 -185.2,-124.84z"/>
   <polygon id="2" class="fil10" points="-1757.94,-6320.05 -1966.01,-6320.05 -1966.01,-5908.62 -1757.94,-5908.62 -1757.94,-5930.89 -1939.63,-5930.89 -1939.63,-6103.79 -1775.53,-6103.79 -1775.53,-6126.06 -1939.63,-6126.06 -1939.63,-6297.78 -1757.94,-6297.78 "/>
   <polygon id="3" class="fil10" points="-1410.39,-6319.47 -1410.39,-5952.58 -1651.86,-6319.47 -1678.24,-6319.47 -1678.24,-5908.62 -1651.86,-5908.62 -1651.86,-6276.68 -1410.39,-5908.62 -1384.02,-5908.62 -1384.02,-6319.47 "/>
   <path id="4" class="fil10" d="M-1171.86 -6320.05l-115.46 0 0 411.43 115.46 0c140.08,0 217.44,-76.19 217.44,-205.13 0,-128.94 -77.36,-206.3 -217.44,-206.3zm-89.08 389.16l0 -366.89 89.08 0c126.6,0 190.48,70.33 190.48,184.03 0,113.11 -63.88,182.86 -190.48,182.86l-89.08 0z"/>
   <path id="5" class="fil10" d="M-602.18 -5908.62l28.72 0 -150.63 -402.06 -29.3 0 -151.21 402.06 28.72 0 39.26 -105.5 195.17 0 39.27 105.5zm-47.47 -127.77l-178.76 0 89.67 -239.71 89.09 239.71z"/>
   <polygon id="6" class="fil10" points="-507.23,-5908.62 -480.86,-5908.62 -480.86,-6256.17 -325.55,-5908.62 -304.45,-5908.62 -149.72,-6256.17 -149.72,-5908.62 -123.35,-5908.62 -123.35,-6311.26 -150.89,-6311.26 -315,-5943.2 -479.1,-6311.26 -507.23,-6311.26 "/>
   <polygon id="7" class="fil10" points="181.42,-6320.05 -26.64,-6320.05 -26.64,-5908.62 181.42,-5908.62 181.42,-5930.89 -0.27,-5930.89 -0.27,-6103.79 163.84,-6103.79 163.84,-6126.06 -0.27,-6126.06 -0.27,-6297.78 181.42,-6297.78 "/>
   <polygon id="8" class="fil10" points="528.97,-6319.47 528.97,-5952.58 287.5,-6319.47 261.13,-6319.47 261.13,-5908.62 287.5,-5908.62 287.5,-6276.68 528.97,-5908.62 555.34,-5908.62 555.34,-6319.47 "/>
   <polygon id="9" class="fil10" points="618.64,-6297.78 735.86,-6297.78 735.86,-5908.62 762.23,-5908.62 762.23,-6297.78 879.45,-6297.78 879.45,-6320.05 618.64,-6320.05 "/>
   <path id="10" class="fil10" d="M1325.46 -6113.75c0,-123.67 -84.98,-209.82 -199.85,-209.82 -114.88,0 -199.86,86.15 -199.86,209.82 0,123.08 84.98,209.82 199.86,209.82 114.87,0 199.85,-86.74 199.85,-209.82zm-372.75 0c0,-116.05 76.19,-186.96 172.9,-186.96 96.7,0 172.31,70.91 172.31,186.96 0,115.46 -75.61,186.37 -172.31,186.37 -96.71,0 -172.9,-70.91 -172.9,-186.37z"/>
  </g>
 </g>
</svg>
