<?xml version="1.0" encoding="UTF-8"?>
<!DOCTYPE svg PUBLIC "-//W3C//DTD SVG 1.1//EN" "http://www.w3.org/Graphics/SVG/1.1/DTD/svg11.dtd">
<!-- Creator: CorelDRAW 2018 (64 Bit Versão de avaliação) -->
<svg xmlns="http://www.w3.org/2000/svg" xml:space="preserve" width="200px" height="56px" version="1.1" style="shape-rendering:geometricPrecision; text-rendering:geometricPrecision; image-rendering:optimizeQuality; fill-rule:evenodd; clip-rule:evenodd"
viewBox="0 0 256 72"
 xmlns:xlink="http://www.w3.org/1999/xlink">
 <defs>
  <style type="text/css">
   <![CDATA[
    .fil0 {fill:#373435}
    .fil3 {fill:#FEFEFE;fill-rule:nonzero}
    .fil2 {fill:#E30613;fill-rule:nonzero}
    .fil1 {fill:white;fill-rule:nonzero}
   ]]>
  </style>
 </defs>
 <g id="Camada_x0020_1">
  <metadata id="CorelCorpID_0Corel-Layer"/>
  <g id="_2440436189040">
   <circle class="fil0" cx="37.38" cy="36.19" r="33.87"/>
   <path class="fil1" d="M103.32 22.1l-24.89 0c0,-4.84 3.92,-8.77 8.77,-8.77l35.09 0c0.79,0 1.44,0.21 1.94,0.63 0.5,0.42 0.85,0.94 1.06,1.54 0.21,0.61 0.23,1.24 0.04,1.9 -0.18,0.66 -0.59,1.2 -1.22,1.62 -4.01,2.79 -8,5.57 -11.97,8.34 -3.98,2.77 -7.98,5.54 -11.98,8.34l23.95 0 0 0.03c0,4.74 -3.84,8.58 -8.58,8.58l-34.1 0c-0.74,0 -1.37,-0.21 -1.9,-0.63 -0.52,-0.42 -0.88,-0.94 -1.07,-1.54 -0.18,-0.61 -0.18,-1.24 0,-1.9 0.19,-0.66 0.6,-1.2 1.23,-1.62l23.63 -16.52z"/>
   <path class="fil1" d="M167.23 34.83c0,5.24 -4.24,9.48 -9.48,9.48l-15.33 0c-2.16,0 -4.19,-0.4 -6.09,-1.22 -1.9,-0.82 -3.54,-1.92 -4.94,-3.32 -1.4,-1.4 -2.5,-3.05 -3.32,-4.94 -0.82,-1.9 -1.23,-3.93 -1.23,-6.09 0,-2.16 0.41,-4.19 1.23,-6.08 0.82,-1.9 1.92,-3.55 3.32,-4.94 1.4,-1.4 3.04,-2.5 4.94,-3.32 1.9,-0.82 3.93,-1.23 6.09,-1.23l24.42 0c2.16,0 4.19,0.41 6.08,1.23 1.9,0.82 3.55,1.92 4.94,3.32 1.4,1.39 2.5,3.04 3.32,4.94 0.82,1.89 1.23,3.92 1.23,6.08l0 15.57c-5.24,0 -9.49,-4.24 -9.49,-9.48l0 -6.09c0,-1.68 -0.59,-3.12 -1.78,-4.3 -1.18,-1.19 -2.62,-1.78 -4.3,-1.78l-24.42 0c-1.69,0 -3.13,0.59 -4.31,1.78 -1.19,1.18 -1.78,2.62 -1.78,4.3 0,1.69 0.59,3.13 1.78,4.31 1.18,1.19 2.62,1.78 4.31,1.78l24.81 0z"/>
   <path class="fil1" d="M225.64 34.83c0,5.24 -4.24,9.48 -9.48,9.48l-15.33 0c-2.16,0 -4.19,-0.4 -6.09,-1.22 -1.9,-0.82 -3.54,-1.92 -4.94,-3.32 -1.4,-1.4 -2.5,-3.05 -3.32,-4.94 -0.82,-1.9 -1.22,-3.93 -1.22,-6.09 0,-2.16 0.4,-4.19 1.22,-6.08 0.82,-1.9 1.92,-3.55 3.32,-4.94 1.4,-1.4 3.04,-2.5 4.94,-3.32 1.9,-0.82 3.93,-1.23 6.09,-1.23l24.42 0c2.16,0 4.19,0.41 6.08,1.23 1.9,0.82 3.55,1.92 4.94,3.32 1.4,1.39 2.51,3.04 3.32,4.94 0.82,1.89 1.23,3.92 1.23,6.08l0 15.57c-5.24,0 -9.49,-4.24 -9.49,-9.48l0 -6.09c0,-1.68 -0.59,-3.12 -1.77,-4.3 -1.19,-1.19 -2.63,-1.78 -4.31,-1.78l-24.42 0c-1.69,0 -3.12,0.59 -4.31,1.78 -1.19,1.18 -1.78,2.62 -1.78,4.3 0,1.69 0.59,3.13 1.78,4.31 1.19,1.19 2.62,1.78 4.31,1.78l24.81 0z"/>
   <path class="fil1" d="M256 44.31l-9.48 0 0 -40.7c5.22,0 9.46,4.22 9.48,9.44l0 31.26z"/>
   <path class="fil2" d="M64.61 37.34c-0.74,15.85 -14.19,28.11 -30.05,27.37 -15.85,-0.74 -28.11,-14.19 -27.37,-30.05 0.74,-15.86 14.19,-28.11 30.05,-27.37 15.86,0.74 28.11,14.19 27.37,30.05z"/>
   <path class="fil1" d="M67.63 47.42c-9.02,-4.28 -19.69,-4.63 -29.44,-3.49 -7.81,0.91 -15.41,3.05 -22.57,6.21 8.04,-7.9 17.32,-14.38 27.45,-19.51 7.71,-3.9 15.85,-6.93 23.57,-10.8 0.55,-0.28 -0.82,-2.76 -1.94,-2.5 -0.61,0.14 -1.2,0.34 -1.72,0.49 -2.71,0.79 -5.4,1.63 -8.12,2.38 -7.48,2.04 -15.16,2.97 -22.89,2.2 -6.69,-0.66 -15.03,-2.72 -20.23,-5.98 -1.37,-0.86 -3.34,-0.43 -4.75,0.14 -0.48,0.19 -3.35,1.72 -2.04,2.54 6.12,3.84 13.72,5.74 20.8,6.64 6.93,0.87 14,0.66 20.89,-0.5 -3.1,1.4 -6.19,2.84 -9.21,4.41 -12.26,6.36 -23.39,14.66 -32.61,24.92 -0.98,1.09 2,4.54 3.33,3.63 14.83,-10.04 36.64,-15.63 53.62,-7.56 1.84,0.88 8.53,-1.95 5.86,-3.22z"/>
   <path class="fil1" d="M35.88 4.01c-16.96,0 -31.14,13.38 -31.94,30.5 -0.4,8.54 2.55,16.72 8.31,23.03 5.75,6.32 13.62,10.02 22.16,10.42 17.62,0.8 32.63,-12.85 33.45,-30.47 0.4,-8.54 -2.55,-16.72 -8.31,-23.04 -5.75,-6.31 -13.62,-10.01 -22.16,-10.41 -0.5,-0.02 -1.01,-0.03 -1.51,-0.03zm0.04 67.89l-0.08 0c-0.53,0 -1.07,-0.01 -1.61,-0.04 -9.58,-0.45 -18.41,-4.59 -24.87,-11.69 -6.05,-6.64 -9.34,-15.12 -9.36,-24.05 0,-0.6 0.01,-1.19 0.04,-1.79 0.92,-19.78 17.76,-35.13 37.53,-34.19 9.58,0.44 18.42,4.59 24.87,11.68 6.46,7.09 9.77,16.27 9.32,25.85 -0.89,19.21 -16.81,34.23 -35.84,34.23z"/>
   <path class="fil2" d="M10.76 17.31c-0.09,1.93 -1.73,3.42 -3.67,3.33 -1.93,-0.09 -3.42,-1.73 -3.33,-3.66 0.09,-1.93 1.73,-3.42 3.66,-3.33 1.93,0.09 3.42,1.73 3.34,3.66z"/>
   <path class="fil2" d="M11.5 55.2c-0.09,2.11 -1.88,3.74 -4,3.65 -2.11,-0.1 -3.74,-1.89 -3.64,-4 0.1,-2.11 1.89,-3.74 4,-3.65 2.11,0.1 3.74,1.89 3.64,4z"/>
   <path class="fil1" d="M7.68 51.9c-0.78,0 -1.52,0.28 -2.1,0.81 -0.62,0.56 -0.99,1.33 -1.02,2.17 -0.04,0.83 0.25,1.63 0.81,2.25 0.56,0.62 1.33,0.98 2.17,1.02 1.73,0.08 3.19,-1.25 3.27,-2.98 0.04,-0.83 -0.25,-1.64 -0.81,-2.25 -0.57,-0.62 -1.34,-0.98 -2.17,-1.02 -0.05,0 -0.1,0 -0.15,0zm0.01 7.65c-0.08,0 -0.15,-0.01 -0.22,-0.01 -1.2,-0.06 -2.32,-0.58 -3.13,-1.47 -0.81,-0.89 -1.23,-2.05 -1.17,-3.26 0.05,-1.2 0.58,-2.31 1.47,-3.13 0.89,-0.81 2.05,-1.22 3.25,-1.17 2.49,0.12 4.43,2.24 4.31,4.73 -0.11,2.41 -2.12,4.31 -4.51,4.31z"/>
   <path class="fil2" d="M11.08 17.32c-0.1,2.11 -1.89,3.74 -4,3.64 -2.11,-0.09 -3.74,-1.89 -3.64,-4 0.1,-2.11 1.89,-3.74 4,-3.64 2.11,0.1 3.74,1.89 3.64,4z"/>
   <path class="fil1" d="M7.26 14.01c-1.66,0 -3.05,1.31 -3.13,2.99 -0.04,0.83 0.25,1.63 0.81,2.25 0.57,0.62 1.34,0.98 2.17,1.02 0.84,0.04 1.64,-0.25 2.25,-0.81 0.62,-0.57 0.99,-1.34 1.02,-2.17 0.04,-0.84 -0.24,-1.64 -0.81,-2.25 -0.56,-0.62 -1.33,-0.98 -2.17,-1.02 -0.05,-0.01 -0.09,-0.01 -0.14,-0.01zm0 7.65c-0.07,0 -0.14,0 -0.21,0 -2.49,-0.12 -4.42,-2.24 -4.31,-4.73 0.12,-2.49 2.24,-4.41 4.73,-4.3 1.21,0.05 2.32,0.58 3.13,1.47 0.81,0.89 1.23,2.05 1.17,3.25 -0.11,2.42 -2.11,4.31 -4.51,4.31z"/>
   <path class="fil2" d="M70.17 50.35c-0.1,2.11 -1.89,3.74 -4,3.64 -2.11,-0.09 -3.74,-1.88 -3.64,-3.99 0.1,-2.11 1.89,-3.75 4,-3.65 2.11,0.1 3.74,1.89 3.64,4z"/>
   <path class="fil1" d="M66.35 47.04c-1.66,0 -3.05,1.31 -3.13,2.99 -0.04,0.83 0.25,1.63 0.82,2.25 0.56,0.62 1.33,0.98 2.16,1.02 0.85,0.04 1.64,-0.25 2.26,-0.81 0.61,-0.57 0.98,-1.34 1.02,-2.17 0.08,-1.72 -1.26,-3.19 -2.98,-3.27 -0.05,-0.01 -0.1,-0.01 -0.15,-0.01zm0 7.65c-0.07,0 -0.14,0 -0.21,0 -2.49,-0.12 -4.42,-2.24 -4.31,-4.73 0.12,-2.49 2.24,-4.41 4.73,-4.3 2.49,0.11 4.42,2.24 4.31,4.72 -0.06,1.21 -0.58,2.32 -1.48,3.14 -0.84,0.76 -1.91,1.17 -3.04,1.17z"/>
   <path class="fil3" d="M87.73 63.21l0.9 0 -4.69 -12.53 -0.92 0 -4.71 12.53 0.89 0 1.23 -3.29 6.08 0 1.22 3.29zm-1.48 -3.99l-5.57 0 2.8 -7.47 2.77 7.47z"/>
   <path id="1" class="fil3" d="M96.41 50.27c-3.58,0 -6.23,2.69 -6.23,6.54 0,3.84 2.65,6.52 6.23,6.52 3.54,0 6.07,-2.64 6.17,-6.24l0 -0.55 -6.55 0 0 0.69 5.71 0c-0.16,3.33 -2.41,5.37 -5.33,5.37 -3.01,0 -5.39,-2.21 -5.39,-5.79 0,-3.6 2.38,-5.81 5.39,-5.81 2.36,0 4.11,1.3 4.82,3.16l0.95 0c-0.91,-2.39 -2.99,-3.89 -5.77,-3.89z"/>
   <polygon id="2" class="fil3" points="111.55,50.38 105.07,50.38 105.07,63.21 111.55,63.21 111.55,62.51 105.89,62.51 105.89,57.12 111.01,57.12 111.01,56.43 105.89,56.43 105.89,51.08 111.55,51.08 "/>
   <polygon id="3" class="fil3" points="122.39,50.4 122.39,61.84 114.86,50.4 114.04,50.4 114.04,63.21 114.86,63.21 114.86,51.73 122.39,63.21 123.21,63.21 123.21,50.4 "/>
   <path id="4" class="fil3" d="M129.82 50.38l-3.6 0 0 12.83 3.6 0c4.36,0 6.77,-2.38 6.77,-6.4 0,-4.02 -2.41,-6.43 -6.77,-6.43zm-2.78 12.13l0 -11.43 2.78 0c3.94,0 5.94,2.19 5.94,5.73 0,3.53 -2,5.7 -5.94,5.7l-2.78 0z"/>
   <path id="5" class="fil3" d="M147.57 63.21l0.9 0 -4.7 -12.53 -0.91 0 -4.71 12.53 0.89 0 1.23 -3.29 6.08 0 1.22 3.29zm-1.48 -3.99l-5.57 0 2.8 -7.47 2.77 7.47z"/>
   <polygon id="6" class="fil3" points="150.53,63.21 151.35,63.21 151.35,52.37 156.19,63.21 156.85,63.21 161.67,52.37 161.67,63.21 162.5,63.21 162.5,50.66 161.64,50.66 156.52,62.13 151.41,50.66 150.53,50.66 "/>
   <polygon id="7" class="fil3" points="171.99,50.38 165.51,50.38 165.51,63.21 171.99,63.21 171.99,62.51 166.33,62.51 166.33,57.12 171.45,57.12 171.45,56.43 166.33,56.43 166.33,51.08 171.99,51.08 "/>
   <polygon id="8" class="fil3" points="182.83,50.4 182.83,61.84 175.3,50.4 174.48,50.4 174.48,63.21 175.3,63.21 175.3,51.73 182.83,63.21 183.65,63.21 183.65,50.4 "/>
   <polygon id="9" class="fil3" points="185.62,51.08 189.27,51.08 189.27,63.21 190.1,63.21 190.1,51.08 193.75,51.08 193.75,50.38 185.62,50.38 "/>
   <path id="10" class="fil3" d="M207.65 56.81c0,-3.85 -2.65,-6.54 -6.23,-6.54 -3.58,0 -6.23,2.69 -6.23,6.54 0,3.84 2.65,6.54 6.23,6.54 3.58,0 6.23,-2.7 6.23,-6.54zm-11.62 0c0,-3.61 2.38,-5.82 5.39,-5.82 3.01,0 5.37,2.21 5.37,5.82 0,3.6 -2.36,5.81 -5.37,5.81 -3.01,0 -5.39,-2.21 -5.39,-5.81z"/>
  </g>
 </g>
</svg>
