<?xml version="1.0" encoding="UTF-8"?>
<!DOCTYPE svg PUBLIC "-//W3C//DTD SVG 1.1//EN" "http://www.w3.org/Graphics/SVG/1.1/DTD/svg11.dtd">
<!-- Creator: CorelDRAW 2018 (64 Bit Versão de avaliação) -->
<svg xmlns="http://www.w3.org/2000/svg" xml:space="preserve" width="128px" height="38px" version="1.1" style="shape-rendering:geometricPrecision; text-rendering:geometricPrecision; image-rendering:optimizeQuality; fill-rule:evenodd; clip-rule:evenodd"
viewBox="0 0 2.59 0.76"
 xmlns:xlink="http://www.w3.org/1999/xlink">
 <defs>
  <style type="text/css">
   <![CDATA[
    .str0 {stroke:#373435;stroke-width:0.04;stroke-miterlimit:22.9256}
    .str1 {stroke:#FEFEFE;stroke-width:0.02;stroke-miterlimit:10}
    .fil0 {fill:#FEFEFE}
    .fil3 {fill:#373435}
    .fil2 {fill:black}
    .fil1 {fill:#E62129}
    .fil6 {fill:#FEFEFE;fill-rule:nonzero}
    .fil5 {fill:#E30613;fill-rule:nonzero}
    .fil4 {fill:white;fill-rule:nonzero}
   ]]>
  </style>
 </defs>
 <g id="Camada_x0020_1">
  <metadata id="CorelCorpID_0Corel-Layer"/>
  <rect class="fil0 str0" x="0.04" y="0.09" width="0.62" height="0.62"/>
  <path class="fil1 str1" d="M0.12 0.69l-0.04 0c-0.01,0 -0.01,-0.01 -0.01,-0.01l0 -0.55c0,-0.01 0,-0.01 0.01,-0.01l0.09 0 0 0.02c0,0.02 0.01,0.03 0.03,0.03 0.02,0 0.03,-0.01 0.03,-0.03l0 -0.1c0,-0.02 -0.01,-0.03 -0.03,-0.03 -0.02,0 -0.03,0.01 -0.03,0.03l0 0.02 -0.09 0c-0.04,0 -0.07,0.03 -0.07,0.07l0 0.55c0,0.04 0.03,0.07 0.07,0.07l0.53 0c0.04,0 0.07,-0.03 0.07,-0.07l0 -0.55c0,-0.04 -0.03,-0.07 -0.07,-0.07l-0.09 0 0 0.06 0.09 0c0,0 0.01,0 0.01,0.01l0 0.55c0,0 -0.01,0.01 -0.01,0.01l-0.04 0 0 -0.07c0,-0.05 -0.05,-0.1 -0.1,-0.1l-0.25 0c-0.06,0 -0.1,0.05 -0.1,0.1l0 0.07z"/>
  <path class="fil1 str1" d="M0.23 0.06l0 0.06 0.22 0 0 0.02c0,0.02 0.02,0.03 0.03,0.03 0.02,0 0.04,-0.01 0.04,-0.03l0 -0.1c0,-0.02 -0.02,-0.03 -0.04,-0.03 -0.01,0 -0.03,0.01 -0.03,0.03l0 0.02 -0.22 0z"/>
  <path class="fil2 str1" d="M0.49 0.35c-0.03,0 -0.05,0.02 -0.05,0.04 0,0.03 0.02,0.05 0.05,0.05 0.02,0 0.04,-0.02 0.04,-0.05 0,-0.02 -0.02,-0.04 -0.04,-0.04z"/>
  <g id="_1764991199632">
   <path class="fil2" d="M0.28 0.29c0.03,0 0.05,-0.02 0.05,-0.05 0,-0.03 -0.02,-0.05 -0.05,-0.05 -0.02,0 -0.04,0.02 -0.04,0.05 0,0.03 0.02,0.05 0.04,0.05z"/>
   <path class="fil2" d="M0.43 0.29c0.02,0 0.04,-0.02 0.04,-0.05 0,-0.03 -0.02,-0.05 -0.04,-0.05 -0.03,0 -0.05,0.02 -0.05,0.05 0,0.03 0.02,0.05 0.05,0.05z"/>
   <path class="fil2" d="M0.14 0.29c0.03,0 0.05,-0.02 0.05,-0.05 0,-0.03 -0.02,-0.05 -0.05,-0.05 -0.02,0 -0.04,0.02 -0.04,0.05 0,0.03 0.02,0.05 0.04,0.05z"/>
  </g>
  <g id="_1764991201840">
   <path class="fil2" d="M0.29 0.45c0.02,0 0.04,-0.02 0.04,-0.05 0,-0.02 -0.02,-0.04 -0.04,-0.04 -0.03,0 -0.05,0.02 -0.05,0.04 0,0.03 0.02,0.05 0.05,0.05z"/>
   <path class="fil2" d="M0.43 0.45c0.03,0 0.05,-0.02 0.05,-0.05 0,-0.02 -0.02,-0.04 -0.05,-0.04 -0.03,0 -0.05,0.02 -0.05,0.04 0,0.03 0.02,0.05 0.05,0.05z"/>
   <path class="fil2" d="M0.15 0.45c0.02,0 0.04,-0.02 0.04,-0.05 0,-0.02 -0.02,-0.04 -0.04,-0.04 -0.03,0 -0.05,0.02 -0.05,0.04 0,0.03 0.02,0.05 0.05,0.05z"/>
  </g>
  <circle class="fil3" cx="0.69" cy="0.45" r="0.3"/>
  <path class="fil4" d="M1.27 0.31l-0.22 0c0,-0.04 0.04,-0.07 0.08,-0.07l0.3 0c0.01,0 0.01,0 0.02,0 0,0.01 0.01,0.01 0.01,0.02 0,0 0,0.01 0,0.01 0,0.01 -0.01,0.01 -0.01,0.02 -0.04,0.02 -0.07,0.05 -0.11,0.07 -0.03,0.02 -0.06,0.05 -0.1,0.07l0.21 0 0 0c0,0.04 -0.03,0.08 -0.08,0.08l-0.29 0c-0.01,0 -0.01,-0.01 -0.02,-0.01 0,0 0,-0.01 -0.01,-0.01 0,-0.01 0,-0.01 0,-0.02 0.01,0 0.01,-0.01 0.01,-0.01l0.21 -0.15z"/>
  <path class="fil4" d="M1.82 0.42c0,0.05 -0.04,0.09 -0.08,0.09l-0.13 0c-0.02,0 -0.04,-0.01 -0.06,-0.01 -0.01,-0.01 -0.03,-0.02 -0.04,-0.03 -0.01,-0.01 -0.02,-0.03 -0.03,-0.05 0,-0.01 -0.01,-0.03 -0.01,-0.05 0,-0.02 0.01,-0.03 0.01,-0.05 0.01,-0.02 0.02,-0.03 0.03,-0.04 0.01,-0.02 0.03,-0.03 0.04,-0.03 0.02,-0.01 0.04,-0.01 0.06,-0.01l0.21 0c0.02,0 0.03,0 0.05,0.01 0.02,0 0.03,0.01 0.04,0.03 0.02,0.01 0.02,0.02 0.03,0.04 0.01,0.02 0.01,0.03 0.01,0.05l0 0.14c-0.04,0 -0.08,-0.04 -0.08,-0.09l0 -0.05c0,-0.01 0,-0.03 -0.01,-0.04 -0.02,-0.01 -0.03,-0.01 -0.04,-0.01l-0.21 0c-0.02,0 -0.03,0 -0.04,0.01 -0.01,0.01 -0.02,0.03 -0.02,0.04 0,0.02 0.01,0.03 0.02,0.04 0.01,0.01 0.02,0.01 0.04,0.01l0.21 0z"/>
  <path class="fil4" d="M2.33 0.42c0,0.05 -0.04,0.09 -0.09,0.09l-0.13 0c-0.02,0 -0.03,-0.01 -0.05,-0.01 -0.02,-0.01 -0.03,-0.02 -0.04,-0.03 -0.02,-0.01 -0.03,-0.03 -0.03,-0.05 -0.01,-0.01 -0.01,-0.03 -0.01,-0.05 0,-0.02 0,-0.03 0.01,-0.05 0,-0.02 0.01,-0.03 0.03,-0.04 0.01,-0.02 0.02,-0.03 0.04,-0.03 0.02,-0.01 0.03,-0.01 0.05,-0.01l0.21 0c0.02,0 0.04,0 0.06,0.01 0.01,0 0.03,0.01 0.04,0.03 0.01,0.01 0.02,0.02 0.03,0.04 0,0.02 0.01,0.03 0.01,0.05l0 0.14c-0.05,0 -0.08,-0.04 -0.08,-0.09l0 -0.05c0,-0.01 -0.01,-0.03 -0.02,-0.04 -0.01,-0.01 -0.02,-0.01 -0.04,-0.01l-0.21 0c-0.01,0 -0.03,0 -0.04,0.01 -0.01,0.01 -0.01,0.03 -0.01,0.04 0,0.02 0,0.03 0.01,0.04 0.01,0.01 0.03,0.01 0.04,0.01l0.22 0z"/>
  <path class="fil4" d="M2.59 0.51l-0.08 0 0 -0.36c0.04,0 0.08,0.04 0.08,0.09l0 0.27z"/>
  <path class="fil5" d="M0.93 0.46c0,0.14 -0.12,0.24 -0.26,0.24 -0.13,-0.01 -0.24,-0.12 -0.23,-0.26 0,-0.14 0.12,-0.24 0.26,-0.24 0.13,0.01 0.24,0.12 0.23,0.26z"/>
  <path class="fil4" d="M0.96 0.55c-0.08,-0.04 -0.17,-0.04 -0.26,-0.03 -0.06,0.01 -0.13,0.02 -0.19,0.05 0.07,-0.07 0.15,-0.12 0.24,-0.17 0.06,-0.03 0.13,-0.06 0.2,-0.09 0.01,0 -0.01,-0.02 -0.02,-0.02 0,0 -0.01,0 -0.01,0 -0.02,0.01 -0.05,0.02 -0.07,0.02 -0.07,0.02 -0.13,0.03 -0.2,0.02 -0.06,0 -0.13,-0.02 -0.17,-0.05 -0.02,-0.01 -0.03,0 -0.04,0 -0.01,0 -0.03,0.02 -0.02,0.02 0.05,0.04 0.12,0.05 0.18,0.06 0.06,0.01 0.12,0.01 0.18,0 -0.03,0.01 -0.06,0.02 -0.08,0.04 -0.11,0.05 -0.2,0.12 -0.28,0.21 -0.01,0.01 0.01,0.04 0.03,0.03 0.12,-0.08 0.31,-0.13 0.46,-0.06 0.01,0 0.07,-0.02 0.05,-0.03z"/>
  <path class="fil4" d="M0.69 0.17c-0.15,0 -0.27,0.12 -0.28,0.27 0,0.07 0.02,0.14 0.07,0.2 0.05,0.05 0.12,0.08 0.19,0.09 0.15,0 0.28,-0.11 0.29,-0.27 0.01,-0.07 -0.02,-0.14 -0.07,-0.2 -0.05,-0.05 -0.12,-0.08 -0.19,-0.09 -0.01,0 -0.01,0 -0.01,0zm0 0.59l-0.01 0c0,0 0,0 -0.01,0 -0.08,0 -0.16,-0.04 -0.21,-0.1 -0.06,-0.06 -0.09,-0.13 -0.09,-0.21 0,0 0,-0.01 0,-0.01 0.01,-0.18 0.16,-0.31 0.33,-0.3 0.08,0 0.16,0.04 0.21,0.1 0.06,0.06 0.09,0.14 0.09,0.22 -0.01,0.17 -0.15,0.3 -0.31,0.3z"/>
  <path class="fil5" d="M0.47 0.29c0,0.01 -0.02,0.03 -0.03,0.03 -0.02,0 -0.03,-0.02 -0.03,-0.03 0,-0.02 0.01,-0.03 0.03,-0.03 0.02,0 0.03,0.01 0.03,0.03z"/>
  <path class="fil5" d="M0.47 0.62c0,0.01 -0.01,0.03 -0.03,0.03 -0.02,0 -0.03,-0.02 -0.03,-0.04 0,-0.02 0.01,-0.03 0.03,-0.03 0.02,0 0.03,0.02 0.03,0.04z"/>
  <path class="fil4" d="M0.44 0.59c-0.01,0 -0.01,0 -0.02,0 0,0.01 -0.01,0.02 -0.01,0.02 0,0.01 0.01,0.02 0.01,0.02 0.01,0.01 0.01,0.01 0.02,0.01 0.01,0 0.03,-0.01 0.03,-0.02 0,-0.01 0,-0.02 -0.01,-0.02 0,-0.01 -0.01,-0.01 -0.02,-0.01 0,0 0,0 0,0zm0 0.06c0,0 0,0 0,0 -0.01,0 -0.02,0 -0.03,-0.01 0,-0.01 -0.01,-0.02 -0.01,-0.03 0,-0.01 0.01,-0.02 0.01,-0.02 0.01,-0.01 0.02,-0.01 0.03,-0.01 0.02,0 0.04,0.01 0.04,0.04 0,0.02 -0.02,0.03 -0.04,0.03z"/>
  <path class="fil5" d="M0.47 0.29c0,0.02 -0.02,0.03 -0.03,0.03 -0.02,0 -0.04,-0.02 -0.04,-0.03 0.01,-0.02 0.02,-0.04 0.04,-0.04 0.02,0 0.03,0.02 0.03,0.04z"/>
  <path class="fil4" d="M0.44 0.26c-0.02,0 -0.03,0.01 -0.03,0.03 0,0 0,0.01 0.01,0.02 0,0 0.01,0 0.02,0 0,0 0.01,0 0.02,0 0,-0.01 0,-0.01 0,-0.02 0,-0.01 0,-0.02 0,-0.02 -0.01,-0.01 -0.01,-0.01 -0.02,-0.01 0,0 0,0 0,0zm0 0.07c0,0 0,0 0,0 -0.03,-0.01 -0.04,-0.02 -0.04,-0.04 0,-0.03 0.02,-0.04 0.04,-0.04 0.01,0 0.02,0 0.03,0.01 0,0.01 0.01,0.02 0.01,0.03 0,0.02 -0.02,0.04 -0.04,0.04z"/>
  <path class="fil5" d="M0.98 0.57c0,0.02 -0.01,0.04 -0.03,0.04 -0.02,-0.01 -0.04,-0.02 -0.03,-0.04 0,-0.02 0.01,-0.03 0.03,-0.03 0.02,0 0.03,0.02 0.03,0.03z"/>
  <path class="fil4" d="M0.95 0.55c-0.02,0 -0.03,0.01 -0.03,0.02 0,0.01 0,0.02 0.01,0.02 0,0.01 0.01,0.01 0.02,0.01 0,0 0.01,0 0.02,-0.01 0,0 0.01,-0.01 0.01,-0.02 0,-0.01 -0.02,-0.02 -0.03,-0.02 0,0 0,0 0,0zm0 0.06c0,0 0,0 0,0 -0.02,0 -0.04,-0.02 -0.04,-0.04 0,-0.02 0.02,-0.04 0.04,-0.04 0.02,0 0.04,0.02 0.04,0.04 0,0.01 -0.01,0.02 -0.02,0.03 0,0.01 -0.01,0.01 -0.02,0.01z"/>
  <path class="fil6" d="M1.14 0.67l0.02 0 -0.05 -0.12 -0.01 0 -0.05 0.12 0.02 0 0.01 -0.03 0.05 0 0.01 0.03zm-0.01 -0.04l-0.05 0 0.02 -0.07 0.03 0.07z"/>
  <path id="1" class="fil6" d="M1.17 0.62c0,0.03 0.02,0.05 0.05,0.05 0.02,0 0.03,-0.01 0.04,-0.02l0 0.02c0,0.03 -0.02,0.04 -0.04,0.04 -0.01,0 -0.03,-0.01 -0.03,-0.02l-0.01 0c0,0.02 0.02,0.03 0.04,0.03 0.03,0 0.05,-0.02 0.05,-0.05l0 -0.1 -0.01 0 0 0.03c-0.01,-0.02 -0.02,-0.03 -0.04,-0.03 -0.03,0 -0.05,0.02 -0.05,0.05zm0.09 0c0,0.03 -0.02,0.04 -0.04,0.04 -0.02,0 -0.04,-0.01 -0.04,-0.04 0,-0.02 0.02,-0.04 0.04,-0.04 0.02,0 0.04,0.02 0.04,0.04z"/>
  <path id="2" class="fil6" d="M1.34 0.58c0.02,0 0.03,0.01 0.03,0.04l-0.07 0c0,-0.03 0.02,-0.04 0.04,-0.04zm0.04 0.06l-0.01 0c0,0.01 -0.02,0.02 -0.03,0.02 -0.02,0 -0.04,-0.01 -0.04,-0.03l0.08 0c0,-0.01 0,-0.01 0,-0.01 0,-0.03 -0.01,-0.05 -0.04,-0.05 -0.03,0 -0.05,0.02 -0.05,0.05 0,0.03 0.02,0.05 0.05,0.05 0.02,0 0.04,-0.01 0.04,-0.03z"/>
  <path id="3" class="fil6" d="M1.48 0.67l0.01 0 0 -0.06c0,-0.02 -0.02,-0.04 -0.04,-0.04 -0.01,0 -0.02,0.01 -0.03,0.02l0 -0.02 -0.01 0 0 0.1 0.01 0 0 -0.05c0,-0.03 0.01,-0.04 0.03,-0.04 0.02,0 0.03,0.01 0.03,0.04l0 0.05z"/>
  <path id="4" class="fil6" d="M1.51 0.62c0,0.03 0.02,0.05 0.05,0.05 0.02,0 0.03,-0.01 0.04,-0.02l0 0.02 0.01 0 0 -0.13 -0.01 0 0 0.05c-0.01,-0.01 -0.02,-0.02 -0.04,-0.02 -0.03,0 -0.05,0.02 -0.05,0.05zm0.09 0c0,0.03 -0.02,0.04 -0.04,0.04 -0.02,0 -0.03,-0.01 -0.03,-0.04 0,-0.02 0.01,-0.04 0.03,-0.04 0.02,0 0.04,0.02 0.04,0.04z"/>
  <path id="5" class="fil6" d="M1.63 0.62c0,0.03 0.02,0.05 0.05,0.05 0.02,0 0.03,-0.01 0.04,-0.02l0 0.02 0.01 0 0 -0.1 -0.01 0 0 0.03c-0.01,-0.02 -0.02,-0.03 -0.04,-0.03 -0.03,0 -0.05,0.02 -0.05,0.05zm0.09 0c0,0.03 -0.02,0.04 -0.04,0.04 -0.02,0 -0.03,-0.01 -0.03,-0.04 0,-0.02 0.01,-0.04 0.03,-0.04 0.02,0 0.04,0.02 0.04,0.04z"/>
  <path id="6" class="fil6" d="M1.9 0.67l0.01 0 0 -0.06c0,-0.02 -0.01,-0.04 -0.04,-0.04 -0.01,0 -0.02,0.01 -0.03,0.03 -0.01,-0.02 -0.02,-0.03 -0.04,-0.03 -0.01,0 -0.02,0.01 -0.03,0.02l0 -0.02 -0.01 0 0 0.1 0.01 0 0 -0.05c0,-0.03 0.01,-0.04 0.03,-0.04 0.02,0 0.03,0.01 0.03,0.04l0 0.05 0.01 0 0 -0.05c0,-0.03 0.02,-0.04 0.03,-0.04 0.02,0 0.03,0.01 0.03,0.04l0 0.05z"/>
  <path id="7" class="fil6" d="M1.98 0.58c0.02,0 0.04,0.01 0.04,0.04l-0.07 0c0,-0.03 0.01,-0.04 0.03,-0.04zm0.05 0.06l-0.02 0c0,0.01 -0.01,0.02 -0.03,0.02 -0.02,0 -0.03,-0.01 -0.03,-0.03l0.08 0c0,-0.01 0,-0.01 0,-0.01 0,-0.03 -0.02,-0.05 -0.05,-0.05 -0.03,0 -0.04,0.02 -0.04,0.05 0,0.03 0.02,0.05 0.04,0.05 0.03,0 0.04,-0.01 0.05,-0.03z"/>
  <path id="8" class="fil6" d="M2.12 0.67l0.02 0 0 -0.06c0,-0.02 -0.02,-0.04 -0.04,-0.04 -0.02,0 -0.03,0.01 -0.04,0.02l0 -0.02 -0.01 0 0 0.1 0.01 0 0 -0.05c0,-0.03 0.02,-0.04 0.03,-0.04 0.02,0 0.03,0.01 0.03,0.04l0 0.05z"/>
  <path id="9" class="fil6" d="M2.17 0.64c0,0.02 0.01,0.03 0.02,0.03l0.02 0 0 -0.01 -0.01 0c-0.02,0 -0.02,0 -0.02,-0.02l0 -0.06 0.03 0 0 -0.01 -0.03 0 0 -0.02 -0.01 0 0 0.02 -0.02 0 0 0.01 0.02 0 0 0.06z"/>
  <path id="10" class="fil6" d="M2.32 0.62c0,-0.03 -0.02,-0.05 -0.05,-0.05 -0.03,0 -0.05,0.02 -0.05,0.05 0,0.03 0.02,0.05 0.05,0.05 0.03,0 0.05,-0.02 0.05,-0.05zm-0.09 0c0,-0.02 0.02,-0.04 0.04,-0.04 0.02,0 0.04,0.02 0.04,0.04 0,0.03 -0.02,0.04 -0.04,0.04 -0.02,0 -0.04,-0.01 -0.04,-0.04z"/>
 </g>
</svg>
